<svg id="mci" xmlns="http://www.w3.org/2000/svg" width="87.14" height="82.751" viewBox="0 0 87.14 82.751">
  <g id="Group_13654" data-name="Group 13654" transform="translate(0 0)">
    <g id="main_illus" data-name="main illus">
      <g id="Group_13511" data-name="Group 13511">
        <g id="Group_13513" data-name="Group 13513">
          <path id="Path_11846" data-name="Path 11846" d="M705.484,246.408c.35.144.611-.08.9-.212a4.667,4.667,0,0,0,2.665-5.114.46.46,0,0,1,.379-.645c.347-.058.52.173.594.483a5.038,5.038,0,0,1-.537,3.59,6.032,6.032,0,0,1-2.763,2.635,3.731,3.731,0,0,0,1.014.819,55.043,55.043,0,0,0,7.975,5.226c1.142.577,2.352.98,3.538,1.445a6.34,6.34,0,0,0,1.841-2.842,8.157,8.157,0,0,0,.335-4.51c-.072-.36-.2-.489-.586-.509a5.528,5.528,0,0,1-4.038-1.883,3.374,3.374,0,0,1-.346-.455.486.486,0,0,1,.118-.747c.282-.18.513-.054.686.192a4.359,4.359,0,0,0,2.263,1.673,4.834,4.834,0,0,0,6.045-3.064,6,6,0,0,0-1.619-6.343c-.268-.227-.415-.108-.634.03a6.192,6.192,0,0,1-6.376.319,4.167,4.167,0,0,1-.537-.327.476.476,0,0,1-.165-.735.464.464,0,0,1,.707-.077,5.112,5.112,0,0,0,7.921-5.075,2.135,2.135,0,0,0-.053-.281c-.105-.354,0-.637.362-.709s.534.191.607.531a6.17,6.17,0,0,1-.356,3.7,5.329,5.329,0,0,1-.834,1.43c-.18.213-.144.339.046.516a6.879,6.879,0,0,1,2.211,4.408c.037.339.208.368.485.385,3.541.223,6.013-1.487,7.685-4.423A11.533,11.533,0,0,0,726.2,218.7a9.193,9.193,0,0,0-2.456-.028c-.355.046-.683.006-.717-.436s.29-.521.642-.552a12.49,12.49,0,0,1,7.14,1.435.69.69,0,0,0,.972-.124,9.657,9.657,0,0,0,.953-12.627c-2.679-3.671-6.383-5.106-10.845-4.778a12.6,12.6,0,0,0-1.921.31,1.952,1.952,0,0,0-.3.127,8.215,8.215,0,0,1,1.338,3.1,7.48,7.48,0,0,1-.5,4.537c-.154.349-.327.719-.791.5-.436-.205-.258-.564-.116-.888a6.476,6.476,0,0,0-8.519-8.628c-.105.046-.2.107-.311.148-.294.112-.578.128-.73-.209s.029-.538.32-.685a7.221,7.221,0,0,1,3.832-.747,7.334,7.334,0,0,1,4.476,1.83c.365.325.532.084.712-.19A9.756,9.756,0,0,0,721,194.416a12.667,12.667,0,0,0-5.693-9.522,20.1,20.1,0,0,0-16.482-3.438,12.979,12.979,0,0,0-6.969,4.172c-.324.364-.365.518.132.813a6.67,6.67,0,0,1,3.389,6.043c0,.327-.07.642-.476.652-.437.011-.521-.307-.522-.665,0-.1,0-.191,0-.287a5.588,5.588,0,0,0-2.36-4.563,5.8,5.8,0,0,0-8.874,2.641,3.647,3.647,0,0,1-.166.426.431.431,0,0,1-.529.236.448.448,0,0,1-.356-.515,1.645,1.645,0,0,1,.118-.44,6.663,6.663,0,0,1,5.431-4.377c.49-.075.549-.266.513-.655a7.308,7.308,0,0,0-2.6-4.948,14.248,14.248,0,0,0-7.372-3.321,12.174,12.174,0,0,0-9.076,1.912,9.268,9.268,0,0,0-3.819,10.435,1.265,1.265,0,0,1-.317,1.151c-.189.286-.511.139-.766-.029a9.825,9.825,0,0,0-5.812-1.606,9.54,9.54,0,0,0-8.591,6.429,8.991,8.991,0,0,0,2.829,9.784,8.415,8.415,0,0,0,7,1.75c.363-.067.74-.107.826.35s-.294.56-.648.621a9.693,9.693,0,0,1-6.975-1.357c-.159-.1-.28-.316-.547-.143-.455.292-.481.433-.06.782,3.608,2.987,7.461,5.652,11.2,8.472a21.4,21.4,0,0,1,2.53,1.959.874.874,0,0,1,.445.239q12.234,9.043,24.465,18.09a24.552,24.552,0,0,1,2.8,2.151,2.993,2.993,0,0,0,1.017-1.4c.286-.537.457-1.13.783-1.651.183-.292.4-.493.744-.3s.273.5.106.793a6.4,6.4,0,0,0-.912,3.774c2.635,1.94,5.277,3.87,7.9,5.825A13.523,13.523,0,0,1,705.484,246.408Zm-9.924-24.946a9.354,9.354,0,0,0,.119,1.016,6.66,6.66,0,0,0,9.5,4.715c.329-.154.672-.325.887.1.234.462-.138.648-.478.807a7.66,7.66,0,0,1-9.677-11.214c.169-.247.314-.434.069-.747a6.8,6.8,0,0,1-1.356-3.656,6.976,6.976,0,0,1,.515-3.309c.121-.3.328-.49.667-.363s.38.395.264.707c-.04.107-.083.214-.12.322a6.2,6.2,0,0,0,3.991,7.99,4.457,4.457,0,0,0,5.786-2.313.515.515,0,0,1,.448-.305.435.435,0,0,1,.425.24.791.791,0,0,1-.026.666,4.374,4.374,0,0,1-3.009,2.685,6.636,6.636,0,0,1-6.293-1.311c-.3-.234-.44-.228-.643.1A7.135,7.135,0,0,0,695.56,221.462Zm13.551,13.653a7.262,7.262,0,0,1-2.794-.54.506.506,0,0,1-.367-.522.457.457,0,0,1,.389-.435,1.035,1.035,0,0,1,.553.11,6.593,6.593,0,0,0,6.966-1.484,7.222,7.222,0,0,0-2.163-11.737,8.968,8.968,0,0,0-1.9-.629.465.465,0,0,1-.422-.571c.053-.324.285-.43.593-.389a3.85,3.85,0,0,1,.395.067,8.754,8.754,0,0,1,4.038,2.178,8.16,8.16,0,0,1,2,9.052A7.7,7.7,0,0,1,709.111,235.115Zm-2.474-28.859a7.51,7.51,0,0,1-.745,3.331c-.154.323-.347.655-.777.437s-.272-.548-.117-.883a6.732,6.732,0,0,0-10.112-8.327c-.318.229-.649.537-.968.078-.289-.416.077-.653.369-.876.06-.046.122-.092.186-.133a7.725,7.725,0,0,1,8.152-.471C705.363,200.818,706.506,203.27,706.638,206.256Zm-20.322-1.533a6.861,6.861,0,0,1-.319,1.935,6.053,6.053,0,0,1-1.109,2.052.481.481,0,0,1-.749.1.47.47,0,0,1-.034-.712c.081-.106.164-.211.241-.321a5.409,5.409,0,0,0-.257-6.5,5.281,5.281,0,0,0-6.381-1.393,5.372,5.372,0,0,0-2.51,2.42c-.166.317-.415.475-.747.284-.307-.177-.294-.461-.134-.748.037-.067.067-.137.1-.2a6.34,6.34,0,0,1,11.9,3.084Zm-3.907,18.229a7.265,7.265,0,0,1-6.35-3.635,3.407,3.407,0,0,1-.5-2.137c.035-.339.174-.6.57-.565.363.036.463.294.43.619a2.865,2.865,0,0,0,.706,2.119,6.256,6.256,0,0,0,6.812,2.359c.344-.082.678-.125.79.3s-.182.58-.528.668A7.922,7.922,0,0,1,682.408,222.952Z" transform="translate(-649.349 -176.485)" fill="#e7e7e7"/>
          <g id="Group_13512" data-name="Group 13512" transform="translate(16.6 40.693)">
            <path id="Path_11849" data-name="Path 11849" d="M879.416,389.244a24.477,24.477,0,0,0-2.8-2.15q-12.224-9.057-24.465-18.09a.879.879,0,0,0-.446-.239,12.234,12.234,0,0,0,.434,2.457c.1.695.3,1.375.417,2.068.063.363.189.531.567.366.068-.03.153-.02.223-.045.357-.128.709-.176.825.29s-.249.575-.6.665a2.919,2.919,0,0,1-.389.09c-.254.029-.359.109-.3.407.381,2.018.657,4.053.915,6.089.122.962.2,1.93.264,2.9.019.324.114.506.43.552,2.961.431,5.716.094,7.925-2.186a5.477,5.477,0,0,0,1.391-2.466c.094-.367.208-.677.667-.6.427.076.385.425.357.724-.047.53-.173,1.055-.187,1.584-.118,4.629,2.36,9.188,7.479,10.253a7.378,7.378,0,0,0,7.15-2.372A.364.364,0,0,0,879.416,389.244Z" transform="translate(-851.703 -368.765)" fill="#e7e7e7"/>
            <path id="Path_11850" data-name="Path 11850" d="M803.32,473.085a22.9,22.9,0,0,1,6.04,7.648,22.429,22.429,0,0,1,2.186,7.77,3.034,3.034,0,0,0,.6,1.7,2.263,2.263,0,0,0,3.187.194,6.022,6.022,0,0,0,1.381-1.809c.379-.728.747-1.463,1.164-2.168a.472.472,0,0,0-.02-.644,8.261,8.261,0,0,1-1.79-4.266,4.428,4.428,0,0,1,.03-1.59c.1-.426.007-.665-.487-.819-3.681-1.151-6.153-3.481-7-7.345a4.17,4.17,0,0,1-.064-.681,1.036,1.036,0,0,0-.176-.66A9.322,9.322,0,0,1,803.32,473.085Z" transform="translate(-780.044 -448.905)" fill="#e7e7e7"/>
            <path id="Path_11851" data-name="Path 11851" d="M747.136,517.851c-1.186-.465-2.4-.868-3.537-1.445a54.994,54.994,0,0,1-7.975-5.226,3.723,3.723,0,0,1-1.014-.82,7.427,7.427,0,0,1-3.068.567c-.521-.039-.667.2-.7.648a6.972,6.972,0,0,0,.631,3.508,8.682,8.682,0,0,0,4.946,4.434,10.487,10.487,0,0,0,7.75.376,8.841,8.841,0,0,0,2.755-1.715A.507.507,0,0,0,747.136,517.851Z" transform="translate(-693.839 -480.393)" fill="#e7e7e7"/>
            <path id="Path_11853" data-name="Path 11853" d="M805.933,478.829a13.5,13.5,0,0,0-2.184-1.706c-2.623-1.955-5.265-3.885-7.9-5.825a7.1,7.1,0,0,0,1.976,4.8,8.817,8.817,0,0,0,5.114,2.937,6.94,6.94,0,0,0,2.727-.034C805.782,478.981,805.891,478.958,805.933,478.829Z" transform="translate(-766.398 -449.598)" fill="#e7e7e7"/>
          </g>
        </g>
      </g>
    </g>
  </g>
</svg>
