<svg id="streams" xmlns="http://www.w3.org/2000/svg" width="14.573" height="14" viewBox="0 0 14.573 14">
  <path id="Icon_ionic-md-people" data-name="Icon ionic-md-people" d="M12.186,11.778A1.952,1.952,0,1,0,10.2,9.827,1.976,1.976,0,0,0,12.186,11.778Zm-5.3,0A1.952,1.952,0,1,0,4.9,9.827,1.975,1.975,0,0,0,6.887,11.778Zm0,1.431c-1.557,0-4.637.748-4.637,2.277v1.757h9.368V15.487C11.618,13.958,8.443,13.21,6.887,13.21Zm5.3.358a3.535,3.535,0,0,0-.568.032,1.939,1.939,0,0,1,1.041,1.887v1.757h4.164V15.487C16.823,13.958,13.743,13.567,12.186,13.567Z" transform="translate(-2.25 -5.733)" fill="#fff"/>
  <rect id="Rectangle_835" data-name="Rectangle 835" width="14" height="14" transform="translate(0.286)" fill="#fff" opacity="0"/>
</svg>
