<svg id="ventout" xmlns="http://www.w3.org/2000/svg" width="112.539" height="67.435" viewBox="0 0 112.539 67.435">
  <path id="Path_12322" data-name="Path 12322" d="M445.3,601.957a3.737,3.737,0,0,1-3.609-.636c-1.264-1.061-1.66-2.809-1.983-4.428l-.954-4.787,2,1.375a14.548,14.548,0,0,1,3.9,3.442,4.939,4.939,0,0,1,.629,4.937" transform="translate(-401.607 -541.537)" fill="#e6e6e6"/>
  <path id="Path_12323" data-name="Path 12323" d="M471.255,652.96a19.328,19.328,0,0,0,.268-4.452,7,7,0,0,0-1.35-3.671,6.107,6.107,0,0,0-1.567-1.42c-.157-.1-.3.149-.145.248a5.8,5.8,0,0,1,2.3,2.771,9.3,9.3,0,0,1,.494,4.008c-.052.817-.162,1.628-.274,2.439a.149.149,0,0,0,.1.177A.144.144,0,0,0,471.255,652.96Z" transform="translate(-427.732 -586.744)" fill="#f2f2f2"/>
  <path id="Path_12324" data-name="Path 12324" d="M414.951,679.941a2.751,2.751,0,0,1-2.4,1.237,5.46,5.46,0,0,1-3.136-1.709l-2.694-2.378,1.783-.085a10.709,10.709,0,0,1,3.818.277,3.636,3.636,0,0,1,2.571,2.611" transform="translate(-373.375 -616.33)" fill="#e6e6e6"/>
  <path id="Path_12325" data-name="Path 12325" d="M452.985,698.168c-.973-1.721-2.1-3.634-4.117-4.246a4.6,4.6,0,0,0-1.732-.179c-.184.016-.138.3.046.283a4.269,4.269,0,0,1,2.764.731,7.183,7.183,0,0,1,1.9,2.05c.315.479.6.978.878,1.477C452.813,698.444,453.076,698.329,452.985,698.168Z" transform="translate(-408.891 -631.106)" fill="#f2f2f2"/>
  <path id="Path_12326" data-name="Path 12326" d="M477.217,343.038l-21.21,17.579a1.308,1.308,0,0,1-1.839-.172l-8.941-10.788a1.308,1.308,0,0,1,.172-1.839l21.209-17.578a1.308,1.308,0,0,1,1.839.172l8.941,10.788a1.308,1.308,0,0,1-.172,1.839Z" transform="translate(-407.048 -310.46)" fill="#ccc"/>
  <path id="Path_12327" data-name="Path 12327" d="M484.385,350.528,463.663,367.7a.674.674,0,0,1-.947-.089l-8.537-10.3a.674.674,0,0,1,.089-.947l20.722-17.174a.674.674,0,0,1,.947.089l8.537,10.3A.674.674,0,0,1,484.385,350.528Z" transform="translate(-415.066 -318.478)" fill="#fff"/>
  <path id="Path_12328" data-name="Path 12328" d="M686.423,445.44l-4.262-.4,3.05-2.4,1.643,1.983a.492.492,0,0,1,.057.553.507.507,0,0,1-.125.154A.493.493,0,0,1,686.423,445.44Z" transform="translate(-616.148 -409.796)" fill="#ccc"/>
  <path id="Path_12329" data-name="Path 12329" d="M560.3,393.544l-10.483,8.688a.633.633,0,1,1-.808-.975l10.483-8.688a.633.633,0,0,1,.808.975Z" transform="translate(-498.586 -365.534)" fill="#ccc"/>
  <path id="Path_12330" data-name="Path 12330" d="M542.406,399.924l-7.07,5.859a.633.633,0,0,1-.808-.975l7.07-5.86a.633.633,0,0,1,.808.975Z" transform="translate(-485.82 -371.157)" fill="#ccc"/>
  <circle id="Ellipse_487" data-name="Ellipse 487" cx="1.979" cy="1.979" r="1.979" transform="translate(43.652 36.793)" fill="#6c63ff"/>
  <circle id="Ellipse_488" data-name="Ellipse 488" cx="0.633" cy="0.633" r="0.633" transform="translate(60.739 33.538)" fill="#e6e6e6"/>
  <circle id="Ellipse_489" data-name="Ellipse 489" cx="0.633" cy="0.633" r="0.633" transform="translate(62.446 32.124)" fill="#e6e6e6"/>
  <circle id="Ellipse_490" data-name="Ellipse 490" cx="0.633" cy="0.633" r="0.633" transform="translate(64.152 30.709)" fill="#e6e6e6"/>
  <path id="Path_12331" data-name="Path 12331" d="M461.2,514.533h1.454l.692-5.608H461.2Z" transform="translate(-406.504 -448.573)" fill="#ffb8b8"/>
  <path id="Path_12332" data-name="Path 12332" d="M583.571,717.884h2.863a1.825,1.825,0,0,1,1.825,1.825v.059h-4.688Z" transform="translate(-529.25 -652.399)" fill="#2f2e41"/>
  <path id="Path_12333" data-name="Path 12333" d="M417.2,514.533h1.454l.692-5.608H417.2Z" transform="translate(-367.722 -448.573)" fill="#ffb8b8"/>
  <path id="Path_12334" data-name="Path 12334" d="M539.571,717.884h2.863a1.825,1.825,0,0,1,1.825,1.825v.059h-4.688Z" transform="translate(-490.468 -652.399)" fill="#2f2e41"/>
  <path id="Path_12335" data-name="Path 12335" d="M539.827,532.885H538.59a.531.531,0,0,1-.533-.514l-.039-1.082c-.312-8.65-.636-17.594,1.366-21.614l.016-.032,6.627-.24,1.33,12.2a5.29,5.29,0,0,1-.062,1.561l-1.759,9.267a.533.533,0,0,1-.545.434l-1.389-.045a.534.534,0,0,1-.51-.586l1.091-8.571a2.929,2.929,0,0,0-.1-1.1l-1.357-4.743a.178.178,0,0,0-.347.024l-2.025,14.578A.536.536,0,0,1,539.827,532.885Z" transform="translate(-488.894 -468.641)" fill="#2f2e41"/>
  <circle id="Ellipse_491" data-name="Ellipse 491" cx="2.913" cy="2.913" r="2.913" transform="translate(48.813 22.735)" fill="#ffb8b8"/>
  <path id="Path_12336" data-name="Path 12336" d="M543.573,426.255h-6.027a.534.534,0,0,1-.528-.611l.3-2.039-1.748-4.809a3.539,3.539,0,0,1,2.847-4.716h0a3.526,3.526,0,0,1,3.679,1.994l.384.817,1.621,8.733a.534.534,0,0,1-.525.631Z" transform="translate(-486.751 -384.593)" fill="#6c63ff"/>
  <path id="Path_12337" data-name="Path 12337" d="M485.638,463.293a1.274,1.274,0,0,0,.883-1.743l4.7-10.61-2.687-.677-3.772,10.642a1.281,1.281,0,0,0,.879,2.387Z" transform="translate(-441.539 -416.515)" fill="#ffb8b8"/>
  <path id="Path_12338" data-name="Path 12338" d="M517.194,432.1l-2.613-1.223a.571.571,0,0,1-.234-.833l1.588-2.4A1.586,1.586,0,1,1,518.8,429l-.821,2.747a.571.571,0,0,1-.789.354Z" transform="translate(-468.151 -395.78)" fill="#6c63ff"/>
  <path id="Path_12339" data-name="Path 12339" d="M590.4,323.217a1.274,1.274,0,0,1-1.045,1.651l-6.708,9.467-1.957-1.961,7.209-8.689a1.281,1.281,0,0,1,2.5-.468Z" transform="translate(-526.715 -303.742)" fill="#ffb8b8"/>
  <path id="Path_12340" data-name="Path 12340" d="M573.206,398.5a.571.571,0,0,1-.146.453l-1.939,2.112a1.586,1.586,0,1,1-2.632-1.772l1.247-2.592a.571.571,0,0,1,.835-.225l2.389,1.618A.57.57,0,0,1,573.206,398.5Z" transform="translate(-515.718 -369.021)" fill="#6c63ff"/>
  <path id="Path_12341" data-name="Path 12341" d="M518.153,346.113a3,3,0,0,0-.109-.78,3.522,3.522,0,0,0-3.94-2.514,3.76,3.76,0,0,0-1.04-.146h0a3.75,3.75,0,0,0-3.705,3.174l-1.4,9.04h7.59L516.77,347a3.766,3.766,0,0,0,.032-.886Z" transform="translate(-462.601 -321.684)" fill="#2f2e41"/>
  <path id="Path_12342" data-name="Path 12342" d="M486.64,732.563H461.619a.119.119,0,1,1,0-.237H486.64a.119.119,0,1,1,0,.237Z" transform="translate(-421.655 -665.129)" fill="#ccc"/>
  <path id="Path_12343" data-name="Path 12343" d="M877.955,243.3a1.192,1.192,0,0,1,1.3,1.283l3.879,1.707-1.85,1.194-3.4-1.8a1.2,1.2,0,0,1,.068-2.38Z" transform="translate(-787.762 -234.09)" fill="#a0616a"/>
  <circle id="Ellipse_492" data-name="Ellipse 492" cx="2.913" cy="2.913" r="2.913" transform="translate(102.926 1.256)" fill="#a0616a"/>
  <path id="Path_12344" data-name="Path 12344" d="M832.1,343.683H830.65l-.692-5.608H832.1Z" transform="translate(-731.536 -297.984)" fill="#a0616a"/>
  <path id="Path_12345" data-name="Path 12345" d="M941.833,548.917h-4.688v-.059a1.825,1.825,0,0,1,1.825-1.825h2.863Z" transform="translate(-840.895 -501.809)" fill="#2f2e41"/>
  <path id="Path_12346" data-name="Path 12346" d="M883.1,343.683H881.65l-.692-5.608H883.1Z" transform="translate(-776.488 -297.984)" fill="#a0616a"/>
  <path id="Path_12347" data-name="Path 12347" d="M992.837,548.917H988.15v-.059a1.825,1.825,0,0,1,1.825-1.825h2.863Z" transform="translate(-885.851 -501.809)" fill="#2f2e41"/>
  <path id="Path_12348" data-name="Path 12348" d="M961.156,378.634a.535.535,0,0,1-.065,0l-2.128-.262a.533.533,0,0,1-.468-.5l-.62-13.965a.178.178,0,0,0-.339-.066l-1.593,5.311-.328,8.531a.533.533,0,0,1-.6.509l-1.843-.217a.532.532,0,0,1-.471-.54l.156-8.03,1.249-12.6.056,0,7.592.293-.068,21.014a.534.534,0,0,1-.534.532Z" transform="translate(-854.609 -334.129)" fill="#2f2e41"/>
  <path id="Path_12349" data-name="Path 12349" d="M965.821,249.549h-.014l-7.646-.2a.534.534,0,0,1-.515-.605l1.469-10.814a5.234,5.234,0,0,1,2.215-3.652,4.53,4.53,0,0,1,3.689-.658,5.21,5.21,0,0,1,3.569,6.389l-2.249,9.135a.537.537,0,0,1-.518.406Z" transform="translate(-858.961 -225.438)" fill="#3f3d56"/>
  <path id="Path_12350" data-name="Path 12350" d="M896.551,247.027a2.588,2.588,0,0,1-1.419-.422l-4.459-2.926a.533.533,0,0,1-.095-.813l.672-.709a.532.532,0,0,1,.585-.129l4.981,1.983,4.614-3.3A1.916,1.916,0,1,1,903.38,244l-5.7,2.77A2.578,2.578,0,0,1,896.551,247.027Z" transform="translate(-799.721 -231.504)" fill="#3f3d56"/>
  <path id="Path_12351" data-name="Path 12351" d="M995.124,172.627a1.521,1.521,0,0,0,1.451-.159,1.481,1.481,0,0,0,.168-.224l.464-.709a5.651,5.651,0,0,0,.868-1.732,2.815,2.815,0,0,0-2.124-3.4,7.357,7.357,0,0,0-2.08-.374,3.553,3.553,0,0,1-2.135-.356c.037.173.237.938.237.938s-.894.82-1.074,1.025a1.68,1.68,0,0,1,2.339,1.265,2.063,2.063,0,0,0,.206.912,1.991,1.991,0,0,0,.757.469,1.846,1.846,0,0,1,.812,2.258Z" transform="translate(-888.276 -165.673)" fill="#2f2e41"/>
  <path id="Path_12352" data-name="Path 12352" d="M809.069,269.5H784.926a1.146,1.146,0,0,1-1.145-1.145v-12.28a1.146,1.146,0,0,1,1.145-1.145h24.143a1.146,1.146,0,0,1,1.145,1.145v12.28A1.146,1.146,0,0,1,809.069,269.5Z" transform="translate(-705.718 -244.348)" fill="#ccc"/>
  <path id="Path_12353" data-name="Path 12353" d="M814.979,274.857H791.391a.59.59,0,0,1-.59-.59V262.543a.59.59,0,0,1,.59-.59h23.588a.59.59,0,0,1,.59.59v11.725A.59.59,0,0,1,814.979,274.857Z" transform="translate(-711.906 -250.535)" fill="#fff"/>
  <path id="Path_12354" data-name="Path 12354" d="M963.446,376.013l-2.653-2.653,3.4.086V375.7a.432.432,0,0,1-.271.4.444.444,0,0,1-.17.034A.432.432,0,0,1,963.446,376.013Z" transform="translate(-861.739 -348.731)" fill="#ccc"/>
  <path id="Path_12355" data-name="Path 12355" d="M877.648,303.677H865.715a.555.555,0,1,1,0-1.11h11.933a.555.555,0,1,1,0,1.11Z" transform="translate(-777.446 -286.333)" fill="#ccc"/>
  <path id="Path_12356" data-name="Path 12356" d="M873.762,283.786h-8.048a.555.555,0,1,1,0-1.11h8.048a.555.555,0,0,1,0,1.11Z" transform="translate(-777.446 -268.801)" fill="#ccc"/>
  <circle id="Ellipse_493" data-name="Ellipse 493" cx="1.734" cy="1.734" r="1.734" transform="translate(81.595 13.875)" fill="#6c63ff"/>
  <circle id="Ellipse_494" data-name="Ellipse 494" cx="0.555" cy="0.555" r="0.555" transform="translate(95.969 20.754)" fill="#e6e6e6"/>
  <circle id="Ellipse_495" data-name="Ellipse 495" cx="0.555" cy="0.555" r="0.555" transform="translate(97.912 20.754)" fill="#e6e6e6"/>
  <circle id="Ellipse_496" data-name="Ellipse 496" cx="0.555" cy="0.555" r="0.555" transform="translate(99.854 20.754)" fill="#e6e6e6"/>
  <path id="Path_12357" data-name="Path 12357" d="M993.81,332.325a1.193,1.193,0,0,1,1.523-1.013l2.465-3.447.79,2.055-2.462,2.958a1.2,1.2,0,0,1-2.316-.554Z" transform="translate(-890.833 -308.631)" fill="#a0616a"/>
  <path id="Path_12358" data-name="Path 12358" d="M1009.5,260.579a.534.534,0,0,1-.5-.247l-.521-.826a.531.531,0,0,1,.02-.6l3.155-4.335-2.05-5.286a1.906,1.906,0,0,1,1.045-2.459h0a1.916,1.916,0,0,1,2.618,1.382l1.272,6.211a2.6,2.6,0,0,1-.789,2.426l-3.938,3.6A.532.532,0,0,1,1009.5,260.579Z" transform="translate(-903.704 -237.072)" fill="#3f3d56"/>
  <path id="Path_12359" data-name="Path 12359" d="M886.64,563.563H861.619a.119.119,0,1,1,0-.237H886.64a.119.119,0,0,1,0,.237Z" transform="translate(-774.22 -516.17)" fill="#ccc"/>
  <path id="Path_12360" data-name="Path 12360" d="M194.163,208.163H170.02a1.146,1.146,0,0,1-1.145-1.145v-12.28a1.146,1.146,0,0,1,1.145-1.145h24.143a1.146,1.146,0,0,1,1.145,1.145v12.28A1.146,1.146,0,0,1,194.163,208.163Z" transform="translate(-163.731 -190.283)" fill="#ccc"/>
  <path id="Path_12361" data-name="Path 12361" d="M200.073,213.519H176.485a.59.59,0,0,1-.59-.59V201.2a.59.59,0,0,1,.59-.59h23.588a.59.59,0,0,1,.59.59v11.725A.59.59,0,0,1,200.073,213.519Z" transform="translate(-169.919 -196.471)" fill="#fff"/>
  <path id="Path_12362" data-name="Path 12362" d="M348.54,314.675l-2.653-2.653,3.4.086v2.257a.431.431,0,0,1-.271.4.443.443,0,0,1-.171.034.432.432,0,0,1-.307-.13Z" transform="translate(-319.753 -294.667)" fill="#ccc"/>
  <path id="Path_12363" data-name="Path 12363" d="M262.742,242.338H250.809a.555.555,0,0,1,0-1.11h11.933a.555.555,0,1,1,0,1.11Z" transform="translate(-235.46 -232.268)" fill="#ccc"/>
  <path id="Path_12364" data-name="Path 12364" d="M258.857,222.447h-8.048a.555.555,0,0,1,0-1.11h8.048a.555.555,0,1,1,0,1.11Z" transform="translate(-235.46 -214.736)" fill="#ccc"/>
  <circle id="Ellipse_497" data-name="Ellipse 497" cx="1.734" cy="1.734" r="1.734" transform="translate(8.675 6.601)" fill="#6c63ff"/>
  <circle id="Ellipse_498" data-name="Ellipse 498" cx="0.555" cy="0.555" r="0.555" transform="translate(23.049 13.48)" fill="#e6e6e6"/>
  <circle id="Ellipse_499" data-name="Ellipse 499" cx="0.555" cy="0.555" r="0.555" transform="translate(24.992 13.48)" fill="#e6e6e6"/>
  <circle id="Ellipse_500" data-name="Ellipse 500" cx="0.555" cy="0.555" r="0.555" transform="translate(26.935 13.48)" fill="#e6e6e6"/>
  <path id="Path_12365" data-name="Path 12365" d="M348.351,183.1a1.192,1.192,0,0,0-.63,1.717l-2.777,3.2,2.183.289,2.3-3.084a1.2,1.2,0,0,0-1.079-2.123Z" transform="translate(-318.921 -180.966)" fill="#ffb8b8"/>
  <path id="Path_12366" data-name="Path 12366" d="M193.315,188.512a1.192,1.192,0,0,1-.92,1.58l-.691,4.181-1.616-1.5.9-3.741a1.2,1.2,0,0,1,2.323-.525Z" transform="translate(-182.429 -185.1)" fill="#ffb8b8"/>
  <path id="Path_12367" data-name="Path 12367" d="M128.4,343.683h1.454l.692-5.608H128.4Z" transform="translate(-113.171 -297.984)" fill="#ffb8b8"/>
  <path id="Path_12368" data-name="Path 12368" d="M250.772,547.034h2.863a1.825,1.825,0,0,1,1.825,1.825v.059h-4.688Z" transform="translate(-235.916 -501.81)" fill="#2f2e41"/>
  <path id="Path_12369" data-name="Path 12369" d="M65.4,343.683h1.454l.692-5.608H65.4Z" transform="translate(-57.642 -297.984)" fill="#ffb8b8"/>
  <path id="Path_12370" data-name="Path 12370" d="M187.772,547.034h2.863a1.825,1.825,0,0,1,1.825,1.825v.059h-4.688Z" transform="translate(-180.387 -501.81)" fill="#2f2e41"/>
  <circle id="Ellipse_501" data-name="Ellipse 501" cx="2.913" cy="2.913" r="2.913" transform="translate(12.01 1.587)" fill="#ffb8b8"/>
  <path id="Path_12371" data-name="Path 12371" d="M190.708,386.673l-.241-15.346a.178.178,0,0,0-.351-.038l-3.948,15.01a.54.54,0,0,1-.542.41l-2.169-.093a.534.534,0,0,1-.507-.6l3.35-19.289.007-.054,9.331.441.061,0-2,19.588a.536.536,0,0,1-.532.494h-1.924A.536.536,0,0,1,190.708,386.673Z" transform="translate(-176.134 -342.837)" fill="#2f2e41"/>
  <path id="Path_12372" data-name="Path 12372" d="M206.26,251.9l-13.54-1.111a.533.533,0,0,1-.458-.713l2.132-5.9.123-7a1.919,1.919,0,0,1,1.976-1.884l.9-.816h3.3l.287.377,2.3.353a1.93,1.93,0,0,1,1.61,1.64l1.947,14.444a.534.534,0,0,1-.528.6Z" transform="translate(-184.317 -226.324)" fill="#2f2e41"/>
  <path id="Path_12373" data-name="Path 12373" d="M288.294,206.647l5.773-1.691,2.613-3.44a.533.533,0,0,1,.635-.168l1.631.7a.534.534,0,0,1,.251.759l-1.953,3.351a2.988,2.988,0,0,1-1.382,1.236l-6.79,3Z" transform="translate(-268.989 -197.079)" fill="#2f2e41"/>
  <path id="Path_12374" data-name="Path 12374" d="M187.252,222.7a2.474,2.474,0,0,1-1.02-2.2l.253-3.357a.535.535,0,0,1,.532-.493h0l1.913.017a.534.534,0,0,1,.519.636l-.355,1.811,2.533,1.07-2.133,4.15Z" transform="translate(-179.023 -210.602)" fill="#2f2e41"/>
  <path id="Path_12375" data-name="Path 12375" d="M226.165,169.349s-3.046-1.64-4.706.3.633,4.963.633,4.963l3.267.412s.119-2.221.9-2.178S229.448,170.082,226.165,169.349Z" transform="translate(-209.548 -168.341)" fill="#2f2e41"/>
  <path id="Path_12376" data-name="Path 12376" d="M150.64,562.563H125.619a.119.119,0,0,1,0-.237H150.64a.119.119,0,0,1,0,.237Z" transform="translate(-125.5 -515.288)" fill="#ccc"/>
</svg>
